# xmcd CD database file
#
# Track frame offsets:
#	150
#	12685
#	25298
#	36517
#	49236
#	61218
#	76568
#	89764
#	100571
#	115104
#	126446
#	140522
#	152238
#	166506
#	179898
#	196798
#	208873
#	224052
#	237893
#
# Disc length: 3327 seconds
#
# Revision: 0
# Processed by: cddbd v1.5.1PL2 Copyright (c) Steve Scherf et al.
# Submitted via: CDex 1.51
#
DISCID=130cfd13
DTITLE=John Lee Hooker - CD1
DYEAR=2005
DGENRE=Blues
TTITLE0=Huckle Up Baby
TTITLE1=Leave My Wife Alone
TTITLE2=I Ain't Got Nobody
TTITLE3=Everybody's Blues
TTITLE4=Let Your Daddy Ride
TTITLE5=Nothin' But Trouble
TTITLE6=Down At The Landing
TTITLE7=Gotta Boogies
TTITLE8=How Long Must I Be Your Slave
TTITLE9=Blue Monday
TTITLE10=Dreamin' Blues
TTITLE11=Littles Boy Blue
TTITLE12=Grinder Man
TTITLE13=Please Take Me Back
TTITLE14=Don't Trust Nobody
TTITLE15=Guitar Lovin' Man
TTITLE16=Just Me And My Telephone
TTITLE17=Apologize
TTITLE18=Love My Baby
EXTD=YEAR: 2005
EXTT0=
EXTT1=
EXTT2=
EXTT3=
EXTT4=
EXTT5=
EXTT6=
EXTT7=
EXTT8=
EXTT9=
EXTT10=
EXTT11=
EXTT12=
EXTT13=
EXTT14=
EXTT15=
EXTT16=
EXTT17=
EXTT18=
PLAYORDER=
